<mxfile host="app.diagrams.net" modified="2024-04-26T10:34:45.888Z" agent="Mozilla/5.0 (Macintosh; Intel Mac OS X 10_15_7) AppleWebKit/537.36 (KHTML, like Gecko) Chrome/115.0.0.0 Safari/537.36" version="24.3.0" etag="unBf-uGVWYD-PsV-RbM3" type="github">
  <diagram name="Page-1" id="EYipqChlmSdkW61OStwf">
    <mxGraphModel>
      <root>
        <mxCell id="0" />
        <mxCell id="1" parent="0" />
      </root>
    </mxGraphModel>
  </diagram>
</mxfile>
